#!OML:ASF H:\Terrain\Patient Classification 1\Walking\liu\liu.ASF
:FULLY-SPECIFIED
:DEGREES
79
root 7.82696 16.1308 -19.6937 6.1887 -3.65433 -6.37045
lowerback -5.45394 2.39529 2.69779
upperback -0.73088 2.94316 3.58626
thorax 2.24956 1.47833 2.39867
lowerneck -22.7789 -3.15741 -11.0567
upperneck 18.4643 -2.931 9.76364
head 9.93425 -1.00065 4.86724
rclavicle 2.96686e-014 2.98177e-014
rhumerus -16.9374 24.8192 -81.8461
rradius 43.6038
rwrist -17.4632
rhand -31.075 -19.9339
rfingers 7.12502
rthumb -4.35552 -49.8691
lclavicle 2.96686e-014 2.98177e-014
lhumerus -51.5181 19.381 63.1569
lradius 5.92608
lwrist -36.9669
lhand -12.0866 -22.6986
lfingers 7.12502
lthumb 13.9736 6.81179
rfemur 22.4798 4.74009 28.7539
rtibia -2.8625e-014
rfoot 1.3399 3.63897
rtoes -20.6513
lfemur -38.8859 2.958 -12.2825
ltibia 23.065
lfoot -2.35886 8.33671
ltoes -12.717
80
root 7.86408 16.1344 -19.4697 6.17516 -3.44485 -6.40204
lowerback -5.47162 2.36947 2.72402
upperback -0.840453 2.90945 3.66844
thorax 2.1441 1.46125 2.46385
lowerneck -22.4621 -3.22381 -11.1519
upperneck 18.3333 -2.99529 9.66617
head 9.8385 -1.05462 4.83125
rclavicle -1.97294e-014 -7.15625e-015
rhumerus -16.9986 24.3769 -81.7835
rradius 43.6489
rwrist -17.3467
rhand -30.9157 -15.9073
rfingers 7.12502
rthumb -4.20178 -45.8456
lclavicle -1.97294e-014 -7.15625e-015
lhumerus -51.992 19.5866 62.9333
lradius 5.92441
lwrist -36.6826
lhand -12.0237 -23.0001
lfingers 7.12502
lthumb 14.0342 6.50608
rfemur 23.0115 4.58299 28.6682
rtibia 4.13472e-014
rfoot 3.10282 3.32847
rtoes -20.9071
lfemur -39.1847 3.50038 -12.6944
ltibia 24.2963
lfoot -0.849494 7.3739
ltoes -15.6084
81
root 7.90359 16.1369 -19.2435 6.03817 -3.16655 -6.03702
lowerback -5.37036 2.28603 2.31941
upperback -0.938018 2.83241 3.65166
thorax 1.9698 1.4204 2.65877
lowerneck -22.1258 -3.35658 -11.2971
upperneck 18.1586 -3.16067 9.67263
head 9.73902 -1.14698 4.82579
rclavicle 8.65956e-015 4.17448e-014
rhumerus -17.3352 23.867 -81.766
rradius 43.8665
rwrist -17.2056
rhand -30.6 -14.8031
rfingers 7.12502
rthumb -3.8969 -44.7473
lclavicle 8.65956e-015 4.17448e-014
lhumerus -52.3597 19.8167 62.7033
lradius 5.81542
lwrist -36.4632
lhand -12.1384 -23.1637
lfingers 7.12502
lthumb 13.9236 6.3501
rfemur 20.385 4.24245 28.1633
rtibia 6.74772
rfoot 1.70417 3.61422
rtoes -19.9607
lfemur -39.1258 4.11275 -13.6428
ltibia 25.6344
lfoot 0.0984101 6.27466
ltoes -17.0839
82
root 7.93803 16.1425 -19.0173 5.93287 -3.07385 -5.26745
lowerback -5.358 2.2728 1.50442
upperback -0.999606 2.86935 3.45817
thorax 1.86829 1.43541 2.91428
lowerneck -22.2616 -3.4551 -11.5533
upperneck 18.4551 -3.29292 10.0047
head 9.89522 -1.18809 4.98098
rclavicle 1.01132e-014 -2.06736e-014
rhumerus -17.7452 23.253 -81.7995
rradius 44.1253
rwrist -16.9774
rhand -30.599 -14.4711
rfingers 7.12502
rthumb -3.89588 -44.4152
lclavicle 1.01132e-014 -2.06736e-014
lhumerus -52.3458 20.0406 62.5697
lradius 5.53299
lwrist -36.236
lhand -12.3638 -22.8265
lfingers 7.12502
lthumb 13.7064 6.7021
rfemur 18.8599 4.08379 27.1724
rtibia 11.0741
rfoot 1.88649 3.0892
rtoes -19.3433
lfemur -38.9275 4.61603 -14.9114
ltibia 26.9937
lfoot 0.394674 5.41428
ltoes -14.8541
83
root 7.96596 16.1387 -18.7995 5.80139 -3.12526 -4.66607
lowerback -5.21941 2.2907 0.812131
upperback -1.02608 2.94239 3.24879
thorax 1.73694 1.4699 3.08261
lowerneck -22.3571 -3.45663 -11.3718
upperneck 18.5393 -3.37026 10.0864
head 9.9502 -1.19951 4.97214
rclavicle -1.88411e-014 -1.47101e-014
rhumerus -18.1244 22.5644 -81.9864
rradius 44.4084
rwrist -16.6605
rhand -30.6342 -13.158
rfingers 7.12502
rthumb -3.92994 -43.1015
lclavicle -1.88411e-014 -1.47101e-014
lhumerus -52.3424 20.2868 62.2481
lradius 5.55632
lwrist -36.0568
lhand -12.6876 -22.3646
lfingers 7.12502
lthumb 13.3943 7.18479
rfemur 17.3717 3.06378 26.0047
rtibia 15.0144
rfoot 2.98019 3.35749
rtoes -20.0891
lfemur -38.7621 5.0411 -15.8423
ltibia 28.3158
lfoot 0.303426 4.76245
ltoes -9.44561
84
root 7.99617 16.1362 -18.5847 5.59463 -2.9206 -4.243
lowerback -4.96187 2.22979 0.330921
upperback -1.07634 2.89795 3.11588
thorax 1.52649 1.44795 3.19829
lowerneck -22.1431 -3.5085 -11.0838
upperneck 18.3226 -3.49321 9.84804
head 9.83966 -1.26627 4.80933
rclavicle 1.45299e-014 -5.96354e-015
rhumerus -18.6085 21.9824 -82.2157
rradius 44.6973
rwrist -16.5674
rhand -30.7328 -12.9575
rfingers 7.12502
rthumb -4.0251 -42.8992
lclavicle 1.45299e-014 -5.96354e-015
lhumerus -52.4501 20.5104 61.9184
lradius 5.66018
lwrist -36.0575
lhand -13.0227 -22.3001
lfingers 7.12502
lthumb 13.0713 7.27026
rfemur 16.0946 2.18971 25.257
rtibia 18.7022
rfoot 4.3028 2.99125
rtoes -20.3467
lfemur -38.6264 5.37084 -16.6333
ltibia 29.5145
lfoot 0.37677 3.89675
ltoes -5.80932
85
root 8.03286 16.1297 -18.3666 5.41434 -2.64794 -3.68737
lowerback -4.91897 2.17075 -0.143295
upperback -1.10054 2.84828 2.94699
thorax 1.46567 1.42253 3.28421
lowerneck -21.7504 -3.65075 -11.2017
upperneck 18.0629 -3.6842 9.86627
head 9.70326 -1.36865 4.79771
rclavicle 5.82066e-015 2.38542e-015
rhumerus -19.0852 21.3123 -82.3966
rradius 44.8129
rwrist -16.4561
rhand -30.8831 -12.1255
rfingers 7.12502
rthumb -4.17022 -42.0644
lclavicle 5.82066e-015 2.38542e-015
lhumerus -52.5811 20.6988 61.6848
lradius 5.91857
lwrist -36.1778
lhand -13.2643 -22.5317
lfingers 7.12502
lthumb 12.8384 7.05353
rfemur 14.9136 1.43868 24.3974
rtibia 22.2031
rfoot 5.93967 2.19771
rtoes -18.4761
lfemur -38.4825 5.70769 -17.6809
ltibia 30.6538
lfoot 0.50354 2.82969
ltoes -5.92036
86
root 8.0717 16.1381 -18.1522 5.27418 -2.50492 -3.2523
lowerback -4.90553 2.10027 -0.464481
upperback -1.06254 2.77233 2.81869
thorax 1.49269 1.383 3.32812
lowerneck -21.4534 -3.68057 -11.2845
upperneck 17.7545 -3.72971 9.93923
head 9.55067 -1.39246 4.82162
rclavicle 1.39211e-014 -3.18055e-015
rhumerus -19.4262 20.8091 -82.5957
rradius 44.7943
rwrist -16.3922
rhand -31.3028 -10.2662
rfingers 7.12502
rthumb -4.57554 -40.1968
lclavicle 1.39211e-014 -3.18055e-015
lhumerus -52.6849 21.138 61.4065
lradius 6.33572
lwrist -36.3102
lhand -13.4719 -22.7412
lfingers 7.12502
lthumb 12.6383 6.85648
rfemur 13.6165 0.535456 23.4805
rtibia 25.6378
rfoot 7.8487 1.60673
rtoes -16.1765
lfemur -38.159 6.08035 -18.5645
ltibia 31.6063
lfoot 0.231798 1.83839
ltoes -6.00323
87
root 8.11207 16.1524 -17.9442 5.09651 -2.37448 -2.99027
lowerback -4.71639 2.05217 -0.585753
upperback -1.10797 2.71815 2.7612
thorax 1.34077 1.35769 3.3241
lowerneck -21.1946 -3.61007 -11.4365
upperneck 17.7533 -3.64206 10.0712
head 9.49907 -1.35384 4.90706
rclavicle 4.23039e-015 -1.03368e-014
rhumerus -20.0107 20.4666 -82.7987
rradius 44.8577
rwrist -16.5969
rhand -31.7834 -12.7572
rfingers 7.12502
rthumb -5.03962 -42.6773
lclavicle 4.23039e-015 -1.03368e-014
lhumerus -52.7886 21.5937 61.1956
lradius 6.68259
lwrist -36.1248
lhand -13.3098 -23.2651
lfingers 7.12502
lthumb 12.7945 6.32285
rfemur 12.2172 -0.426139 22.7538
rtibia 29.2294
rfoot 9.54222 1.07875
rtoes -14.7212
lfemur -37.6111 6.34261 -19.1715
ltibia 32.2924
lfoot -0.296941 1.13429
ltoes -5.56733
88
root 8.15276 16.1728 -17.7369 4.92335 -2.38725 -2.40217
lowerback -4.55483 2.12967 -0.961752
upperback -1.17706 2.84515 2.54021
thorax 1.16462 1.42319 3.30435
lowerneck -21.1666 -3.64949 -11.7274
upperneck 18.1127 -3.72014 10.4613
head 9.64363 -1.37029 5.09769
rclavicle -1.00821e-014 1.31198e-014
rhumerus -20.6987 19.9392 -82.9378
rradius 45.0222
rwrist -16.9714
rhand -32.6254 -22.7337
rfingers 7.12502
rthumb -5.85259 -52.6329
lclavicle -1.00821e-014 1.31198e-014
lhumerus -52.834 21.7084 61.0206
lradius 7.34418
lwrist -35.8665
lhand -12.494 -23.9355
lfingers 7.12502
lthumb 13.5809 5.60151
rfemur 10.721 -1.19812 21.7518
rtibia 32.8961
rfoot 11.023 0.639301
rtoes -14.1928
lfemur -36.847 6.46237 -20.0555
ltibia 32.6376
lfoot -0.845131 0.783211
ltoes -6.19968
89
root 8.19447 16.204 -17.5316 4.7306 -2.53135 -1.42759
lowerback -4.37026 2.22556 -1.74329
upperback -1.20832 3.01296 2.22415
thorax 0.995166 1.509 3.41537
lowerneck -21.0328 -3.72205 -12.0534
upperneck 18.1863 -3.8446 10.9202
head 9.67833 -1.404 5.30485
rclavicle 1.74993e-014 -8.34896e-015
rhumerus -21.4167 19.4785 -83.077
rradius 45.2758
rwrist -17.5415
rhand -34.6301 -34.1895
rfingers 7.12502
rthumb -7.78777 -64.0261
lclavicle 1.74993e-014 -8.34896e-015
lhumerus -52.7517 21.8633 60.858
lradius 7.98122
lwrist -36.0144
lhand -11.9205 -24.0924
lfingers 7.12502
lthumb 14.1336 5.40684
rfemur 9.13922 -1.69873 20.3957
rtibia 36.5977
rfoot 12.6875 -0.252269
rtoes -13.7726
lfemur -35.8468 6.33085 -21.2361
ltibia 32.65
lfoot -1.61241 0.778819
ltoes -6.63686
